<svg width="34" height="17" viewBox="0 0 34 17" fill="none" xmlns="http://www.w3.org/2000/svg">
<path d="M8.19572 8.56743L13.7169 5.43805C14.9853 4.71027 15.4329 3.1092 14.6868 1.79924C13.9407 0.562045 12.2993 0.125385 10.9563 0.853143L1.40625 6.23858L8.19572 8.56743Z" fill="#EA4335"/>
<path d="M12.2996 16.5002C13.2696 16.5002 14.1649 15.9907 14.6125 15.1902C15.3587 13.953 14.911 12.2791 13.6426 11.5514L4.09254 6.16594C2.82417 5.43821 1.10814 5.87483 0.362043 7.11203C-0.384059 8.34923 0.0636145 10.0231 1.33198 10.7508L10.882 16.1362C11.4043 16.4274 11.852 16.5002 12.2996 16.5002Z" fill="#4285F4"/>
<path d="M21.7746 16.4998C22.2222 16.4998 22.6699 16.3542 23.1175 16.1359L32.6676 10.7505L26.0274 8.34888L20.4316 11.4783C19.1632 12.206 18.7155 13.8071 19.4617 15.117C19.9839 16.0631 20.8793 16.4998 21.7746 16.4998Z" fill="#FBBC04"/>
<path d="M31.325 11.1873C32.295 11.1873 33.1903 10.6779 33.6379 9.87738C34.3841 8.64018 33.9364 6.96631 32.668 6.23858L23.1179 0.853146C21.8496 0.125383 20.1335 0.562044 19.3874 1.79923C18.6413 3.03642 19.089 4.71027 20.3574 5.43805L29.9074 10.8235C30.3551 11.0418 30.8774 11.1873 31.325 11.1873Z" fill="#0F9D58"/>
</svg>
