<svg width="1000" height="400" viewBox="0 0 1000 400" fill="none" xmlns="http://www.w3.org/2000/svg">
<g clip-path="url(#clip0_35_6071)">
<rect width="1000" height="400" rx="200" fill="#EEEEEE"/>
<path d="M289.616 198.588C289.616 188.827 297.803 180.878 307.581 180.878C312.119 180.803 316.496 182.562 319.722 185.757L316.292 189.173C313.958 186.92 310.828 185.678 307.583 185.718C300.463 185.718 294.895 191.454 294.895 198.591C294.895 205.728 300.453 211.459 307.583 211.459C312.203 211.459 314.833 209.604 316.519 207.917C317.902 206.535 318.805 204.544 319.153 201.844H307.583V196.993H323.858C324.042 197.994 324.129 199.012 324.117 200.029C324.117 203.655 323.125 208.146 319.93 211.346C316.814 214.572 312.842 216.282 307.586 216.282C297.803 216.278 289.616 208.35 289.616 198.588Z" fill="#1F2937"/>
<path d="M337.255 211.8C333.803 211.8 330.825 208.948 330.825 204.89C330.825 200.831 333.803 197.98 337.255 197.98C340.708 197.98 343.686 200.787 343.686 204.89C343.686 208.993 340.708 211.802 337.255 211.802M337.255 193.491C330.953 193.491 325.816 198.286 325.816 204.892C325.816 211.498 330.951 216.28 337.255 216.28C343.56 216.28 348.694 211.442 348.694 204.878C348.694 198.314 343.557 193.491 337.255 193.491Z" fill="#1F2937"/>
<path d="M362.209 211.8C358.757 211.8 355.779 208.948 355.779 204.89C355.779 200.831 358.757 197.98 362.209 197.98C365.662 197.98 368.64 200.787 368.64 204.89C368.64 208.993 365.662 211.802 362.209 211.802M362.209 193.491C355.907 193.491 350.771 198.286 350.771 204.892C350.771 211.498 355.907 216.28 362.209 216.28C368.511 216.28 373.648 211.442 373.648 204.878C373.648 198.314 368.514 193.491 362.209 193.491Z" fill="#1F2937"/>
<path d="M406.046 182.088H401.038V215.603H406.046V182.088Z" fill="#1F2937"/>
<path d="M406.046 182.088H401.038V215.603H406.046V182.088Z" fill="#1F2937"/>
<path d="M419.385 197.895C421.371 197.895 423.053 198.887 423.615 200.313L413.427 204.545C413.296 200.138 416.836 197.895 419.383 197.895H419.385ZM419.774 211.804C417.229 211.804 415.413 210.637 414.251 208.349L429.489 202.042L428.976 200.756C428.027 198.208 425.135 193.502 419.222 193.502C413.308 193.502 408.475 198.124 408.475 204.903C408.475 211.294 413.31 216.305 419.785 216.305C423.601 216.323 427.168 214.421 429.28 211.245L425.395 208.653C424.09 210.543 422.319 211.804 419.774 211.804Z" fill="#1F2937"/>
<path d="M387.105 211.806C383.653 211.806 380.759 208.91 380.759 204.94C380.759 200.971 383.653 197.986 387.105 197.986C390.558 197.986 393.176 200.921 393.176 204.94C393.176 208.959 390.509 211.806 387.098 211.806H387.105ZM392.837 194.182V196.035H392.663C391.541 194.685 389.381 193.487 386.666 193.487C380.967 193.487 375.744 198.498 375.744 204.933C375.744 211.369 380.967 216.281 386.666 216.281C389.384 216.281 391.541 215.074 392.663 213.689H392.837V215.329C392.837 219.692 390.507 222.024 386.766 222.024C383.702 222.024 381.802 219.82 381.033 217.975L376.672 219.79C378.352 223.895 382.357 226.564 386.79 226.539C392.661 226.539 397.625 223.083 397.625 214.662V194.184H392.837V194.182Z" fill="#1F2937"/>
<path d="M461.268 182.043H444.367V215.658H461.268V182.043Z" fill="#1F2937"/>
<path d="M492.614 216.19C502.191 216.19 509.955 208.427 509.955 198.85C509.955 189.273 502.191 181.509 492.614 181.509C483.037 181.509 475.273 189.273 475.273 198.85C475.273 208.427 483.037 216.19 492.614 216.19Z" fill="#1F2937"/>
<path d="M466.809 219.237H463.55L472.823 178.462H476.082L466.809 219.237Z" fill="#1F2937"/>
<rect x="520.23" y="180.038" width="193.308" height="37.6154" rx="18.8077" fill="#FBBC04"/>
<path d="M537.367 205.346V191.967H545.757V193.722H539.4V197.77H545.313V199.507H539.4V203.591H545.831V205.346H537.367ZM549.088 195.312L551.287 199.211L553.505 195.312H555.667L552.544 200.32L555.685 205.346H553.542L551.287 201.595L549.051 205.346H546.889L549.994 200.32L546.908 195.312H549.088ZM561.586 195.312V196.882H559.534V202.389C559.544 203.526 560.098 203.729 560.736 203.738C561.022 203.738 561.456 203.711 561.733 203.683V205.402C561.465 205.439 561.04 205.475 560.495 205.475C558.952 205.475 557.557 204.625 557.576 202.796V196.882H556.097V195.312H557.576V192.909H559.534V195.312H561.586ZM567.153 205.549C564.196 205.549 562.376 203.507 562.385 200.394C562.376 197.308 564.224 195.182 567.024 195.182C569.306 195.182 571.477 196.596 571.477 200.227V200.93H564.344C564.4 202.842 565.527 203.923 567.172 203.923C568.29 203.923 569.02 203.443 569.352 202.833H571.348C570.904 204.459 569.361 205.549 567.153 205.549ZM564.353 199.451H569.537C569.537 197.927 568.548 196.799 567.042 196.809C565.462 196.799 564.437 198.037 564.353 199.451ZM574.846 199.396V205.346H572.868V195.312H574.772V196.956H574.883C575.354 195.875 576.343 195.182 577.839 195.182C579.9 195.182 581.267 196.485 581.258 198.971V205.346H579.299V199.211C579.29 197.751 578.505 196.882 577.174 196.882C575.816 196.882 574.846 197.797 574.846 199.396ZM586.844 205.549C584.423 205.54 582.649 203.591 582.649 200.357C582.649 197.086 584.451 195.182 586.863 195.182C588.729 195.182 589.404 196.31 589.764 196.938H589.856V191.967H591.834V205.346H589.912V203.775H589.764C589.394 204.431 588.674 205.54 586.844 205.549ZM584.664 200.32C584.654 202.334 585.56 203.859 587.288 203.868C588.969 203.859 589.912 202.426 589.912 200.32C589.912 198.231 588.988 196.855 587.288 196.864C585.541 196.855 584.654 198.342 584.664 200.32ZM598.159 205.549C595.202 205.549 593.382 203.507 593.391 200.394C593.382 197.308 595.23 195.182 598.03 195.182C600.312 195.182 602.483 196.596 602.483 200.227V200.93H595.35C595.405 202.842 596.533 203.923 598.177 203.923C599.295 203.923 600.025 203.443 600.358 202.833H602.354C601.91 204.459 600.367 205.549 598.159 205.549ZM595.359 199.451H600.543C600.543 197.927 599.554 196.799 598.048 196.809C596.468 196.799 595.442 198.037 595.359 199.451ZM607.626 205.549C605.205 205.54 603.431 203.591 603.431 200.357C603.431 197.086 605.232 195.182 607.644 195.182C609.51 195.182 610.185 196.31 610.545 196.938H610.638V191.967H612.615V205.346H610.693V203.775H610.545C610.176 204.431 609.455 205.54 607.626 205.549ZM605.445 200.32C605.436 202.334 606.341 203.859 608.069 203.868C609.751 203.859 610.693 202.426 610.693 200.32C610.693 198.231 609.769 196.855 608.069 196.864C606.323 196.855 605.436 198.342 605.445 200.32Z" fill="black" fill-opacity="0.54"/>
<path d="M635.165 190.73V201.943H632.992V190.73H635.165ZM622.457 195.667C622.457 194.914 622.642 194.236 623.013 193.633C623.384 193.03 623.894 192.561 624.543 192.225C625.192 191.889 625.905 191.721 626.681 191.721C627.469 191.721 628.182 191.889 628.82 192.225C629.469 192.561 629.979 193.03 630.349 193.633C630.72 194.236 630.906 194.914 630.906 195.667C630.906 196.409 630.72 197.081 630.349 197.684C629.979 198.286 629.469 198.762 628.82 199.109C628.182 199.445 627.469 199.613 626.681 199.613C625.905 199.613 625.192 199.445 624.543 199.109C623.894 198.762 623.384 198.286 623.013 197.684C622.642 197.081 622.457 196.409 622.457 195.667ZM624.56 195.667C624.56 196.293 624.763 196.797 625.169 197.18C625.574 197.55 626.079 197.736 626.681 197.736C627.296 197.736 627.8 197.55 628.194 197.18C628.599 196.797 628.802 196.293 628.802 195.667C628.802 195.03 628.599 194.525 628.194 194.155C627.8 193.772 627.296 193.581 626.681 193.581C626.079 193.581 625.574 193.772 625.169 194.155C624.763 194.525 624.56 195.03 624.56 195.667ZM624.821 200.813H626.959V204.29H635.547V206.011H624.821V200.813ZM640.433 192.59V190.834H642.571V192.59H645.683V194.259H642.571V194.363C642.571 195.314 642.878 196.189 643.493 196.988C644.118 197.776 645.028 198.35 646.222 198.709L645.196 200.396C644.35 200.141 643.62 199.764 643.006 199.266C642.392 198.756 641.905 198.153 641.546 197.458C641.186 198.211 640.694 198.866 640.068 199.422C639.454 199.967 638.712 200.378 637.843 200.656L636.8 198.97C637.993 198.599 638.897 197.997 639.512 197.162C640.126 196.316 640.433 195.383 640.433 194.363V194.259H637.321V192.59H640.433ZM639.651 201.3H641.806V204.29H650.273V206.011H639.651V201.3ZM645.179 195.267H647.752V190.73H649.908V202.256H647.752V197.023H645.179V195.267Z" fill="#111111"/>
<path d="M660.567 197.388H664.739V199.474H660.567V203.629H658.498V199.474H654.326V197.388H658.498V193.216H660.567V197.388Z" fill="#111111"/>
<path d="M676.409 196.241V198.188H682.39V199.874H668.308V198.188H674.236V196.241H676.409ZM669.021 195.458C670.122 195.319 671.066 195.053 671.854 194.659C672.643 194.265 673.234 193.79 673.628 193.233C674.033 192.677 674.236 192.097 674.236 191.495V191.008H676.427V191.495C676.427 192.121 676.624 192.712 677.018 193.268C677.412 193.813 678.003 194.282 678.791 194.676C679.579 195.059 680.529 195.319 681.642 195.458L680.825 197.162C679.538 196.965 678.42 196.606 677.47 196.084C676.531 195.551 675.812 194.896 675.314 194.12C674.816 194.896 674.091 195.551 673.141 196.084C672.202 196.606 671.095 196.965 669.82 197.162L669.021 195.458ZM669.925 203.542C669.925 202.661 670.4 201.983 671.35 201.508C672.301 201.022 673.622 200.778 675.314 200.778C677.018 200.778 678.345 201.022 679.295 201.508C680.245 201.983 680.721 202.661 680.721 203.542C680.721 204.435 680.245 205.118 679.295 205.594C678.345 206.069 677.018 206.306 675.314 206.306C673.61 206.306 672.283 206.069 671.333 205.594C670.394 205.118 669.925 204.435 669.925 203.542ZM672.098 203.542C672.098 204.307 673.17 204.69 675.314 204.69C676.403 204.69 677.215 204.597 677.748 204.412C678.281 204.226 678.548 203.936 678.548 203.542C678.548 203.148 678.281 202.858 677.748 202.673C677.215 202.488 676.403 202.395 675.314 202.395C673.17 202.395 672.098 202.777 672.098 203.542ZM695.446 191.79V193.529H686.806V197.684H695.567V199.405H691.1V202.743H697.097V204.516H682.998V202.743H688.944V199.405H684.65V191.79H695.446Z" fill="#111111"/>
<path d="M898.56 -14.4993C890.6 -16.656 882.555 -16.0472 875.442 -13.2591C869.016 -10.7673 861.766 -12.6384 857.372 -17.9699C852.508 -23.8813 845.802 -28.3494 837.786 -30.3527C818.525 -35.207 798.561 -23.7381 793.071 -4.63286C790.785 3.31416 791.269 11.402 793.933 18.557C796.217 24.6898 794.421 31.624 789.428 35.8421C783.603 40.8033 779.22 47.6046 777.333 55.668C772.788 75.0053 784.603 94.7513 803.8 99.9427C811.747 102.078 819.791 101.469 826.917 98.7025C833.33 96.1888 840.594 98.0817 844.988 103.413C849.839 109.303 856.544 113.771 864.538 115.787C883.822 120.629 903.785 109.16 909.289 90.0762C911.562 82.1074 911.09 74.0414 908.413 66.8645C906.143 60.7535 907.938 53.8194 912.918 49.5795C918.757 44.64 923.139 37.8388 925.027 29.7754C929.558 10.4163 917.744 -9.32969 898.56 -14.4993Z" fill="#34A853" stroke="#1F2937" stroke-width="1.53846" stroke-miterlimit="10"/>
<path d="M821.081 397.236C816.108 408.7 815.184 421.717 819.505 433.567C828.13 457.241 854.418 467.27 878.212 455.947L1002.03 397.029C1025.83 385.705 1038.14 357.325 1029.51 333.65C1020.89 309.976 994.601 299.946 970.808 311.27L846.988 370.187C835.085 375.847 826.067 385.777 821.094 397.241L821.081 397.236Z" fill="url(#paint0_linear_35_6071)" stroke="#4B5563" stroke-width="1.53846" stroke-miterlimit="10"/>
<path d="M963.853 402.395C974.5 406.456 987.057 406.133 998.999 400.446C1022.86 389.095 1035.2 360.645 1026.56 336.913L981.561 213.414C972.912 189.681 946.554 179.628 922.696 190.979C898.838 202.33 886.491 230.78 895.139 254.512L940.134 378.012C944.455 389.885 953.212 398.321 963.859 402.382L963.853 402.395Z" fill="url(#paint1_linear_35_6071)" stroke="#4B5563" stroke-width="1.53846" stroke-miterlimit="10"/>
<mask id="mask0_35_6071" style="mask-type:alpha" maskUnits="userSpaceOnUse" x="124" y="235" width="205" height="205">
<path d="M236.604 236.112C244.944 234.65 253.522 236.562 260.453 241.425L305.243 272.857C312.173 277.72 316.887 285.137 318.349 293.477L327.795 347.374C329.256 355.713 327.345 364.291 322.482 371.222L291.05 416.012C286.187 422.942 278.769 427.657 270.43 429.118L216.533 438.564C208.194 440.026 199.615 438.114 192.685 433.251L147.895 401.819C140.965 396.956 136.25 389.539 134.788 381.199L125.343 327.302C123.881 318.963 125.792 310.384 130.656 303.454L162.087 258.664C166.951 251.734 174.368 247.019 182.707 245.558L236.604 236.112Z" fill="black"/>
</mask>
<g mask="url(#mask0_35_6071)">
<path d="M-79.1804 201.543L328.602 27.0864L567.991 531.654L159.365 706.471L-79.1804 201.543Z" fill="#EFEEEB" stroke="#4B5563" stroke-width="1.53846" stroke-linejoin="round"/>
<path d="M281.814 642.623L63.4391 155.18" stroke="#4B5563" stroke-width="1.53846" stroke-linejoin="round"/>
<path d="M246.004 658.666L27.6295 171.224" stroke="#4B5563" stroke-width="1.53846" stroke-linejoin="round"/>
<path d="M210.195 674.71L-8.17907 187.267" stroke="#4B5563" stroke-width="1.53846" stroke-linejoin="round"/>
<path d="M174.386 690.753L-43.9886 203.31" stroke="#4B5563" stroke-width="1.53846" stroke-linejoin="round"/>
<path d="M365.871 61.5237L-63.6279 253.963" stroke="#4B5563" stroke-width="1.53846" stroke-linejoin="round"/>
<path d="M425.16 578.411L206.782 90.9569" stroke="#4B5563" stroke-width="1.53846" stroke-linejoin="round"/>
<path d="M389.351 594.454L170.973 107" stroke="#4B5563" stroke-width="1.53846" stroke-linejoin="round"/>
<path d="M353.539 610.49L135.164 123.044" stroke="#4B5563" stroke-width="1.53846" stroke-linejoin="round"/>
<path d="M317.72 626.536L99.3543 139.087" stroke="#4B5563" stroke-width="1.53846" stroke-linejoin="round"/>
<path d="M532.901 530.139L314.523 42.688" stroke="#4B5563" stroke-width="1.53846" stroke-linejoin="round"/>
<path d="M496.984 546.231L278.606 58.7799" stroke="#4B5563" stroke-width="1.53846" stroke-linejoin="round"/>
<path d="M461.068 562.322L242.698 74.8677" stroke="#4B5563" stroke-width="1.53846" stroke-linejoin="round"/>
<path d="M381.747 96.9809L-47.7436 289.416" stroke="#4B5563" stroke-width="1.53846" stroke-linejoin="round"/>
<path d="M397.342 131.79L-32.1484 324.225" stroke="#4B5563" stroke-width="1.53846" stroke-linejoin="round"/>
<path d="M412.942 166.605L-16.5532 359.032" stroke="#4B5563" stroke-width="1.53846" stroke-linejoin="round"/>
<path d="M428.537 201.414L-0.953576 393.849" stroke="#4B5563" stroke-width="1.53846" stroke-linejoin="round"/>
<path d="M444.138 236.231L14.6421 428.658" stroke="#4B5563" stroke-width="1.53846" stroke-linejoin="round"/>
<path d="M459.887 271.139L30.3912 463.566" stroke="#4B5563" stroke-width="1.53846" stroke-linejoin="round"/>
<path d="M475.328 305.847L45.8374 498.282" stroke="#4B5563" stroke-width="1.53846" stroke-linejoin="round"/>
<path d="M490.928 340.664L61.4322 533.091" stroke="#4B5563" stroke-width="1.53846" stroke-linejoin="round"/>
<path d="M506.523 375.472L77.0323 567.907" stroke="#4B5563" stroke-width="1.53846" stroke-linejoin="round"/>
<path d="M181.215 331.314C182.753 343.236 179.742 355.751 171.802 366.029C155.948 386.564 126.435 390.374 105.899 374.519L-0.967945 292.024C-21.5037 276.169 -25.313 246.657 -9.45854 226.121C6.39594 205.585 35.9085 201.776 56.4442 217.63L163.312 300.126C173.587 308.052 179.662 319.396 181.201 331.317L181.215 331.314Z" fill="#202125"/>
</g>
<path d="M236.738 236.87C244.876 235.443 253.248 237.308 260.011 242.055L304.801 273.486C311.565 278.232 316.165 285.471 317.592 293.609L327.038 347.506C328.464 355.645 326.599 364.017 321.853 370.78L290.421 415.57C285.675 422.333 278.436 426.934 270.298 428.36L216.401 437.806C208.262 439.233 199.891 437.368 193.127 432.621L148.337 401.19C141.574 396.443 136.973 389.205 135.547 381.066L126.101 327.17C124.675 319.031 126.54 310.659 131.286 303.896L162.717 259.106C167.464 252.343 174.702 247.742 182.841 246.315L236.738 236.87Z" stroke="#4B5563" stroke-width="1.53846"/>
<path d="M153.513 334.29C157.608 346.159 157.512 359.232 152.237 370.691C141.706 393.588 114.499 401.355 91.4787 388.021L-28.3134 318.639C-51.3332 305.305 -61.4738 275.923 -50.9427 253.027C-40.4116 230.13 -13.2046 222.362 9.81516 235.697L129.607 305.078C141.124 311.744 149.404 322.426 153.5 334.294L153.513 334.29Z" fill="url(#paint2_linear_35_6071)" stroke="#4B5563" stroke-width="1.53846" stroke-miterlimit="10"/>
<path d="M10.0373 327.04C-0.984692 330.185 -13.5811 328.791 -25.1363 322.095C-48.2229 308.726 -58.3929 279.268 -47.8312 256.313L7.12137 136.854C17.683 113.898 44.969 106.11 68.0556 119.479C91.1423 132.848 101.312 162.306 90.7506 185.261L35.798 304.72C30.5199 316.205 21.0539 323.881 10.0319 327.026L10.0373 327.04Z" fill="url(#paint3_linear_35_6071)" stroke="#4B5563" stroke-width="1.53846" stroke-miterlimit="10"/>
<path d="M162.698 8.62479C158.155 19.8198 157.882 32.7552 162.973 44.7749C173.136 68.7894 200.85 80.0362 224.864 69.874L349.832 17.0006C373.847 6.83839 385.094 -20.8757 374.932 -44.8902C364.769 -68.9047 337.055 -80.1515 313.041 -69.9893L188.073 -17.1159C176.059 -12.0378 167.253 -2.56418 162.711 8.63079L162.698 8.62479Z" fill="url(#paint4_linear_35_6071)" stroke="#4B5563" stroke-width="1.53846" stroke-miterlimit="10"/>
<path d="M680.853 336.052C691.338 328.321 706.261 334.839 707.714 347.785L720.761 464.023C722.215 476.969 709.108 486.633 697.17 481.418L589.982 434.599C578.043 429.384 576.227 413.202 586.712 405.47L680.853 336.052Z" fill="url(#paint5_linear_35_6071)" stroke="#111111" stroke-width="1.53846"/>
</g>
<rect x="0.5" y="0.5" width="999" height="399" rx="199.5" stroke="#111111"/>
<defs>
<linearGradient id="paint0_linear_35_6071" x1="731.718" y1="453.801" x2="1153.85" y2="347.164" gradientUnits="userSpaceOnUse">
<stop stop-color="#FFCC32"/>
<stop offset="0.3" stop-color="#FFCC32"/>
<stop offset="0.36" stop-color="#FBC330"/>
<stop offset="0.38" stop-color="#F9BE30"/>
<stop offset="0.47" stop-color="#F6A930"/>
<stop offset="0.65" stop-color="#F17433"/>
<stop offset="0.68" stop-color="#F06A34"/>
<stop offset="0.86" stop-color="#E84435"/>
</linearGradient>
<linearGradient id="paint1_linear_35_6071" x1="1022.92" y1="515.304" x2="906.664" y2="220.457" gradientUnits="userSpaceOnUse">
<stop stop-color="#FFCC32"/>
<stop offset="0.3" stop-color="#FFCC32"/>
<stop offset="0.36" stop-color="#FBC330"/>
<stop offset="0.38" stop-color="#F9BE30"/>
<stop offset="0.47" stop-color="#F6A930"/>
<stop offset="0.65" stop-color="#F17433"/>
<stop offset="0.68" stop-color="#F06A34"/>
<stop offset="0.86" stop-color="#E84435"/>
</linearGradient>
<linearGradient id="paint2_linear_35_6071" x1="79.7066" y1="195.041" x2="-60.1923" y2="358.826" gradientUnits="userSpaceOnUse">
<stop stop-color="#4285F4"/>
<stop offset="0.25" stop-color="#4285F4"/>
<stop offset="0.52" stop-color="#9F6CD4"/>
<stop offset="0.82" stop-color="#E94434"/>
<stop offset="1" stop-color="#E94434"/>
</linearGradient>
<linearGradient id="paint3_linear_35_6071" x1="-65.7491" y1="250.429" x2="105.596" y2="183.307" gradientUnits="userSpaceOnUse">
<stop stop-color="#4285F4"/>
<stop offset="0.25" stop-color="#4285F4"/>
<stop offset="0.52" stop-color="#9F6CD4"/>
<stop offset="0.82" stop-color="#E94434"/>
<stop offset="1" stop-color="#E94434"/>
</linearGradient>
<linearGradient id="paint4_linear_35_6071" x1="490.717" y1="-69.0068" x2="26.7314" y2="78.6539" gradientUnits="userSpaceOnUse">
<stop offset="0.14" stop-color="#E84435"/>
<stop offset="0.32" stop-color="#F06A34"/>
<stop offset="0.35" stop-color="#F17433"/>
<stop offset="0.53" stop-color="#F6A930"/>
<stop offset="0.62" stop-color="#F9BE30"/>
<stop offset="0.64" stop-color="#FBC330"/>
<stop offset="0.7" stop-color="#FFCC32"/>
<stop offset="1" stop-color="#FFCC32"/>
</linearGradient>
<linearGradient id="paint5_linear_35_6071" x1="685.959" y1="360.613" x2="642.05" y2="440.579" gradientUnits="userSpaceOnUse">
<stop stop-color="#FFCB32"/>
<stop offset="0.336946" stop-color="#D9C438"/>
<stop offset="1" stop-color="#34A751"/>
</linearGradient>
<clipPath id="clip0_35_6071">
<rect width="1000" height="400" rx="200" fill="white"/>
</clipPath>
</defs>
</svg>
