<svg width="122" height="50" viewBox="0 0 122 50" fill="none" xmlns="http://www.w3.org/2000/svg">
<g clip-path="url(#clip0_189_489)">
<path d="M12.5519 12.6067L21.0071 7.7165C22.9495 6.57923 23.635 4.0773 22.4925 2.03026C21.3499 0.0969559 18.8362 -0.585396 16.7795 0.551842L2.1543 8.96746L12.5519 12.6067Z" fill="#EA4335"/>
<path d="M18.836 25.0026C20.3213 25.0026 21.6925 24.2065 22.378 22.9555C23.5206 21.0222 22.835 18.4066 20.8926 17.2693L6.26741 8.85371C4.325 7.71651 1.69703 8.3988 0.554441 10.3321C-0.588157 12.2654 0.0974207 14.8811 2.03983 16.0183L16.665 24.4339C17.4648 24.8888 18.1504 25.0026 18.836 25.0026Z" fill="#4285F4"/>
<path d="M33.3465 25.0025C34.0321 25.0025 34.7176 24.7751 35.4031 24.4338L50.0284 16.0183L39.8593 12.2654L31.2898 17.1555C29.3474 18.2928 28.6618 20.7947 29.8045 22.8417C30.6043 24.3202 31.9754 25.0025 33.3465 25.0025Z" fill="#FBBC04"/>
<path d="M47.9717 16.7007C49.4571 16.7007 50.8282 15.9046 51.5137 14.6537C52.6564 12.7203 51.9708 10.1047 50.0284 8.96746L35.4032 0.551848C33.4607 -0.585399 30.8327 0.0969541 29.6902 2.03026C28.5476 3.96357 29.2332 6.57923 31.1756 7.7165L45.8008 16.1321C46.4863 16.4732 47.2861 16.7007 47.9717 16.7007Z" fill="#0F9D58"/>
</g>
<path d="M115.672 46.911C114.953 46.911 114.307 46.7394 113.732 46.3962C113.157 46.053 112.707 45.5859 112.381 44.9948C112.065 44.4037 111.907 43.7506 111.907 43.0356C111.907 42.3206 112.065 41.6675 112.381 41.0764C112.707 40.4853 113.157 40.0182 113.732 39.675C114.307 39.3318 114.953 39.1602 115.672 39.1602C116.39 39.1602 117.037 39.3318 117.611 39.675C118.186 40.0182 118.631 40.4853 118.947 41.0764C119.273 41.6675 119.436 42.3206 119.436 43.0356C119.436 43.7506 119.273 44.4037 118.947 44.9948C118.631 45.5859 118.186 46.053 117.611 46.3962C117.037 46.7394 116.39 46.911 115.672 46.911ZM115.672 45.8099C116.122 45.8099 116.538 45.7003 116.922 45.481C117.314 45.2522 117.626 44.928 117.855 44.5085C118.095 44.0891 118.215 43.5981 118.215 43.0356C118.215 42.4731 118.095 41.9821 117.855 41.5626C117.626 41.1432 117.314 40.8238 116.922 40.6045C116.538 40.3757 116.122 40.2613 115.672 40.2613C115.221 40.2613 114.8 40.3757 114.407 40.6045C114.015 40.8238 113.698 41.1432 113.459 41.5626C113.229 41.9821 113.114 42.4731 113.114 43.0356C113.114 43.5981 113.229 44.0891 113.459 44.5085C113.698 44.928 114.015 45.2522 114.407 45.481C114.8 45.7003 115.221 45.8099 115.672 45.8099Z" fill="#111111" fill-opacity="0.52"/>
<path d="M106.826 46.911C106.175 46.911 105.581 46.7441 105.044 46.4105C104.517 46.0768 104.101 45.6192 103.794 45.0376C103.488 44.4465 103.334 43.7792 103.334 43.0355C103.334 42.3014 103.488 41.6388 103.794 41.0478C104.101 40.4567 104.517 39.9943 105.044 39.6606C105.581 39.3269 106.175 39.1601 106.826 39.1601C107.391 39.1601 107.894 39.2888 108.334 39.5462C108.775 39.7941 109.11 40.1039 109.34 40.4757H109.398L109.34 39.4604V36.443H110.561V46.6822H109.398V45.6096H109.34C109.11 45.9719 108.775 46.2817 108.334 46.5392C107.894 46.787 107.391 46.911 106.826 46.911ZM106.97 45.8098C107.401 45.8098 107.798 45.6954 108.162 45.4666C108.536 45.2378 108.833 44.9137 109.053 44.4942C109.283 44.0747 109.398 43.5885 109.398 43.0355C109.398 42.4826 109.283 41.9964 109.053 41.5769C108.833 41.1574 108.536 40.8333 108.162 40.6044C107.798 40.3756 107.401 40.2612 106.97 40.2612C106.548 40.2612 106.151 40.3756 105.777 40.6044C105.403 40.8333 105.102 41.1622 104.872 41.5912C104.652 42.0107 104.541 42.4921 104.541 43.0355C104.541 43.579 104.652 44.0652 104.872 44.4942C105.102 44.9137 105.403 45.2378 105.777 45.4666C106.151 45.6954 106.548 45.8098 106.97 45.8098Z" fill="#111111" fill-opacity="0.52"/>
<path d="M98.4379 49.9999C97.5758 49.9999 96.8622 49.7997 96.2971 49.3993C95.7415 48.9989 95.3679 48.5175 95.1764 47.955L96.2827 47.4831C96.4455 47.9025 96.7137 48.241 97.0873 48.4984C97.4704 48.7653 97.9206 48.8988 98.4379 48.8988C99.1946 48.8988 99.7789 48.6795 100.191 48.241C100.612 47.8024 100.823 47.1827 100.823 46.3819V45.5668H100.765C100.526 45.9386 100.186 46.2437 99.7453 46.482C99.3143 46.7108 98.821 46.8252 98.2655 46.8252C97.6333 46.8252 97.0538 46.6632 96.5269 46.339C96.0097 46.0149 95.5978 45.562 95.2913 44.9805C94.9848 44.3989 94.8315 43.7363 94.8315 42.9927C94.8315 42.2586 94.9848 41.6008 95.2913 41.0192C95.5978 40.4281 96.0097 39.9705 96.5269 39.6464C97.0538 39.3222 97.6333 39.1602 98.2655 39.1602C98.821 39.1602 99.3143 39.2793 99.7453 39.5177C100.186 39.7465 100.526 40.0516 100.765 40.4329H100.823V39.389H101.987V46.3962C101.987 47.5689 101.661 48.4603 101.01 49.0704C100.358 49.6901 99.5011 49.9999 98.4379 49.9999ZM98.4379 45.7241C98.8785 45.7241 99.276 45.6145 99.6304 45.3952C99.9944 45.1759 100.282 44.8613 100.492 44.4513C100.713 44.0414 100.823 43.5552 100.823 42.9927C100.823 42.4207 100.713 41.9297 100.492 41.5197C100.282 41.1098 99.9944 40.7999 99.6304 40.5902C99.276 40.3709 98.8785 40.2613 98.4379 40.2613C97.9973 40.2613 97.595 40.3709 97.231 40.5902C96.867 40.8095 96.5748 41.1241 96.3545 41.534C96.1438 41.944 96.0384 42.4302 96.0384 42.9927C96.0384 43.5552 96.1438 44.0462 96.3545 44.4656C96.5748 44.8756 96.867 45.1902 97.231 45.4095C97.595 45.6192 97.9973 45.7241 98.4379 45.7241Z" fill="#111111" fill-opacity="0.52"/>
<path d="M87.2358 39.389H88.3996V40.4615H88.4571C88.6582 40.0992 88.9791 39.7941 89.4197 39.5463C89.8604 39.2889 90.3297 39.1602 90.8278 39.1602C91.709 39.1602 92.3795 39.4176 92.8393 39.9324C93.3086 40.4377 93.5433 41.1289 93.5433 42.006V46.6822H92.322V42.1919C92.322 41.515 92.1592 41.024 91.8335 40.7189C91.5079 40.4138 91.0625 40.2613 90.4973 40.2613C90.1046 40.2613 89.7502 40.3709 89.4341 40.5902C89.1276 40.8095 88.8881 41.1003 88.7157 41.4625C88.5433 41.8153 88.4571 42.1871 88.4571 42.578V46.6822H87.2358V39.389Z" fill="#111111" fill-opacity="0.52"/>
<path d="M82.1936 46.911C81.4752 46.911 80.8286 46.7394 80.2539 46.3962C79.6792 46.053 79.229 45.5859 78.9033 44.9948C78.5873 44.4037 78.4292 43.7506 78.4292 43.0356C78.4292 42.3206 78.5873 41.6675 78.9033 41.0764C79.229 40.4853 79.6792 40.0182 80.2539 39.675C80.8286 39.3318 81.4752 39.1602 82.1936 39.1602C82.912 39.1602 83.5585 39.3318 84.1332 39.675C84.7079 40.0182 85.1533 40.4853 85.4694 41.0764C85.7951 41.6675 85.9579 42.3206 85.9579 43.0356C85.9579 43.7506 85.7951 44.4037 85.4694 44.9948C85.1533 45.5859 84.7079 46.053 84.1332 46.3962C83.5585 46.7394 82.912 46.911 82.1936 46.911ZM82.1936 45.8099C82.6438 45.8099 83.0604 45.7003 83.4436 45.481C83.8363 45.2522 84.1476 44.928 84.3775 44.5085C84.6169 44.0891 84.7367 43.5981 84.7367 43.0356C84.7367 42.4731 84.6169 41.9821 84.3775 41.5626C84.1476 41.1432 83.8363 40.8238 83.4436 40.6045C83.0604 40.3757 82.6438 40.2613 82.1936 40.2613C81.7434 40.2613 81.3219 40.3757 80.9292 40.6045C80.5365 40.8238 80.2204 41.1432 79.9809 41.5626C79.751 41.9821 79.6361 42.4731 79.6361 43.0356C79.6361 43.5981 79.751 44.0891 79.9809 44.5085C80.2204 44.928 80.5365 45.2522 80.9292 45.481C81.3219 45.7003 81.7434 45.8099 82.1936 45.8099Z" fill="#111111" fill-opacity="0.52"/>
<path d="M73.881 46.911C73.0764 46.911 72.3389 46.6679 71.6684 46.1817C70.9979 45.6955 70.5381 45.0138 70.2891 44.1367L71.4529 43.6648C71.6157 44.275 71.9174 44.7755 72.358 45.1664C72.7986 45.5572 73.3159 45.7527 73.9097 45.7527C74.5036 45.7527 75.0065 45.5954 75.4184 45.2808C75.8302 44.9566 76.0362 44.5181 76.0362 43.9651C76.0362 43.4884 75.859 43.0975 75.5046 42.7925C75.1597 42.4779 74.5898 42.1871 73.7948 41.9201L73.1483 41.6913C72.4203 41.4339 71.8264 41.0955 71.3666 40.676C70.9069 40.2565 70.677 39.675 70.677 38.9313C70.677 38.4451 70.8111 37.997 71.0793 37.5871C71.3475 37.1676 71.7211 36.8339 72.2 36.586C72.6789 36.3382 73.2153 36.2142 73.8092 36.2142C74.403 36.2142 74.9203 36.3239 75.3609 36.5431C75.8015 36.7624 76.1511 37.0294 76.4097 37.344C76.6779 37.6586 76.8647 37.9684 76.9701 38.2735L75.8207 38.7597C75.7249 38.407 75.5046 38.0876 75.1597 37.8016C74.8245 37.5156 74.3791 37.3726 73.8235 37.3726C73.2967 37.3726 72.8465 37.5203 72.473 37.8159C72.0994 38.1114 71.9126 38.4832 71.9126 38.9313C71.9126 39.3317 72.0707 39.6607 72.3868 39.9181C72.7029 40.1659 73.1818 40.3995 73.8235 40.6188L74.4988 40.8476C75.3705 41.1622 76.0506 41.5579 76.5391 42.0345C77.0276 42.5017 77.2718 43.1405 77.2718 43.9508C77.2718 44.6086 77.0994 45.1616 76.7546 45.6097C76.4193 46.0578 75.9931 46.3867 75.4758 46.5964C74.9586 46.8061 74.427 46.911 73.881 46.911Z" fill="#111111" fill-opacity="0.52"/>
<path d="M65.3458 44.9518L66.3228 46.2246L65.4032 46.911L64.6705 45.9386C64 46.5869 63.2002 46.911 62.2711 46.911C61.591 46.911 60.9636 46.7537 60.3889 46.4391C59.8238 46.1245 59.3736 45.6955 59.0383 45.1521C58.7126 44.5991 58.5498 43.9889 58.5498 43.3216C58.5498 42.721 58.7126 42.1537 59.0383 41.6198C59.364 41.0764 59.8046 40.6331 60.3602 40.2899L60.3458 40.2756C60.0967 39.9514 59.91 39.6559 59.7854 39.3889C59.6609 39.1125 59.5987 38.8312 59.5987 38.5452C59.5987 38.1257 59.7088 37.7396 59.9291 37.3869C60.1494 37.0246 60.4464 36.7386 60.8199 36.5288C61.1935 36.3191 61.6006 36.2142 62.0412 36.2142C62.6159 36.2142 63.0996 36.3811 63.4923 36.7148C63.8851 37.0389 64.1628 37.4488 64.3257 37.9446L63.2768 38.5023C63.1523 38.1782 62.9942 37.9112 62.8027 37.7015C62.6207 37.4822 62.3669 37.3726 62.0412 37.3726C61.6868 37.3726 61.3946 37.4822 61.1647 37.7015C60.9349 37.9112 60.8199 38.1925 60.8199 38.5452C60.8199 38.898 60.9396 39.2269 61.1791 39.532L64.6418 44.0366L65.59 42.4207L66.5527 42.9927L65.3458 44.9518ZM62.2711 45.8099C62.9703 45.8099 63.545 45.5572 63.9952 45.052L61.0354 41.1765C60.6236 41.3958 60.2931 41.7009 60.0441 42.0917C59.795 42.4731 59.6705 42.8783 59.6705 43.3073C59.6705 43.784 59.7854 44.213 60.0153 44.5943C60.2452 44.9757 60.5565 45.276 60.9492 45.4953C61.3515 45.705 61.7921 45.8099 62.2711 45.8099Z" fill="#111111" fill-opacity="0.52"/>
<path d="M47.4438 39.389H48.6076V40.4615H48.6651C48.8663 40.0992 49.1871 39.7941 49.6278 39.5463C50.0684 39.2889 50.5377 39.1602 51.0358 39.1602C51.917 39.1602 52.5875 39.4176 53.0473 39.9324C53.5166 40.4377 53.7513 41.1289 53.7513 42.006V46.6822H52.5301V42.1919C52.5301 41.515 52.3672 41.024 52.0415 40.7189C51.7159 40.4138 51.2705 40.2613 50.7053 40.2613C50.3126 40.2613 49.9582 40.3709 49.6421 40.5902C49.3356 40.8095 49.0961 41.1003 48.9237 41.4625C48.7513 41.8153 48.6651 42.1871 48.6651 42.578V46.6822H47.4438V39.389Z" fill="#111111" fill-opacity="0.52"/>
<path d="M42.4016 46.911C41.6832 46.911 41.0366 46.7394 40.4619 46.3962C39.8872 46.053 39.437 45.5859 39.1113 44.9948C38.7953 44.4037 38.6372 43.7506 38.6372 43.0356C38.6372 42.3206 38.7953 41.6675 39.1113 41.0764C39.437 40.4853 39.8872 40.0182 40.4619 39.675C41.0366 39.3318 41.6832 39.1602 42.4016 39.1602C43.12 39.1602 43.7665 39.3318 44.3412 39.675C44.9159 40.0182 45.3613 40.4853 45.6774 41.0764C46.0031 41.6675 46.1659 42.3206 46.1659 43.0356C46.1659 43.7506 46.0031 44.4037 45.6774 44.9948C45.3613 45.5859 44.9159 46.053 44.3412 46.3962C43.7665 46.7394 43.12 46.911 42.4016 46.911ZM42.4016 45.8099C42.8518 45.8099 43.2684 45.7003 43.6516 45.481C44.0443 45.2522 44.3556 44.928 44.5855 44.5085C44.8249 44.0891 44.9447 43.5981 44.9447 43.0356C44.9447 42.4731 44.8249 41.9821 44.5855 41.5626C44.3556 41.1432 44.0443 40.8238 43.6516 40.6045C43.2684 40.3757 42.8518 40.2613 42.4016 40.2613C41.9514 40.2613 41.5299 40.3757 41.1372 40.6045C40.7445 40.8238 40.4284 41.1432 40.1889 41.5626C39.959 41.9821 39.8441 42.4731 39.8441 43.0356C39.8441 43.5981 39.959 44.0891 40.1889 44.5085C40.4284 44.928 40.7445 45.2522 41.1372 45.481C41.5299 45.7003 41.9514 45.8099 42.4016 45.8099Z" fill="#111111" fill-opacity="0.52"/>
<path d="M34.1206 46.911C33.4214 46.911 32.794 46.7442 32.2384 46.4105C31.6829 46.0768 31.2471 45.6192 30.931 45.0377C30.6244 44.4466 30.4712 43.784 30.4712 43.0499C30.4712 42.3444 30.6149 41.6961 30.9022 41.105C31.1992 40.5139 31.6158 40.042 32.1522 39.6893C32.6886 39.3365 33.3112 39.1602 34.02 39.1602C34.7384 39.1602 35.361 39.3222 35.8879 39.6464C36.4147 39.961 36.817 40.3995 37.0947 40.962C37.3821 41.5245 37.5258 42.168 37.5258 42.8926C37.5258 43.0356 37.5114 43.1595 37.4827 43.2644H31.6925C31.7212 43.8174 31.8553 44.2845 32.0948 44.6659C32.3342 45.0472 32.6359 45.3332 32.9999 45.5239C33.3735 45.7146 33.7614 45.8099 34.1637 45.8099C35.1024 45.8099 35.8256 45.3713 36.3333 44.4942L37.3677 44.9948C37.0516 45.5859 36.6206 46.053 36.0746 46.3962C35.5382 46.7394 34.8869 46.911 34.1206 46.911ZM36.2327 42.2634C36.2135 41.9583 36.1273 41.6532 35.9741 41.3481C35.8208 41.0431 35.5766 40.7856 35.2413 40.5759C34.9156 40.3662 34.5038 40.2613 34.0057 40.2613C33.431 40.2613 32.9425 40.4472 32.5402 40.819C32.1474 41.1813 31.8888 41.6627 31.7643 42.2634H36.2327Z" fill="#111111" fill-opacity="0.52"/>
<path d="M22.749 36.443H23.9703V39.4604L23.9128 40.4614H23.9703C24.1714 40.0896 24.4875 39.7798 24.9186 39.5319C25.3592 39.284 25.8381 39.1601 26.3553 39.1601C27.2461 39.1601 27.9262 39.4223 28.3956 39.9466C28.8649 40.4614 29.0996 41.1479 29.0996 42.0059V46.6822H27.8783V42.1918C27.8783 41.534 27.7107 41.0478 27.3755 40.7331C27.0402 40.4185 26.6044 40.2612 26.068 40.2612C25.6848 40.2612 25.3304 40.3756 25.0048 40.6044C24.6887 40.8333 24.4348 41.1288 24.2433 41.4911C24.0613 41.8534 23.9703 42.2299 23.9703 42.6208V46.6822H22.749V36.443Z" fill="#111111" fill-opacity="0.52"/>
<path d="M18.2245 46.911C17.5157 46.911 16.8787 46.7442 16.3136 46.4105C15.7484 46.0673 15.3078 45.6049 14.9917 45.0234C14.6756 44.4323 14.5176 43.7697 14.5176 43.0356C14.5176 42.3015 14.6756 41.6389 14.9917 41.0478C15.3078 40.4567 15.7484 39.9944 16.3136 39.6607C16.8787 39.327 17.5157 39.1602 18.2245 39.1602C19.0195 39.1602 19.6852 39.3461 20.2216 39.7179C20.7676 40.0802 21.1555 40.5664 21.3854 41.1765L20.2791 41.6341C20.0971 41.1861 19.8241 40.8476 19.4601 40.6188C19.1057 40.3805 18.6747 40.2613 18.167 40.2613C17.736 40.2613 17.3337 40.3805 16.9601 40.6188C16.5865 40.8476 16.2848 41.1718 16.0549 41.5912C15.8346 42.0107 15.7245 42.4922 15.7245 43.0356C15.7245 43.579 15.8346 44.0605 16.0549 44.4799C16.2848 44.8994 16.5865 45.2283 16.9601 45.4667C17.3337 45.6955 17.736 45.8099 18.167 45.8099C18.6842 45.8099 19.1296 45.6907 19.5032 45.4524C19.8768 45.214 20.1545 44.8756 20.3365 44.437L21.4285 44.8947C21.1795 45.4953 20.7772 45.9815 20.2216 46.3533C19.6756 46.7251 19.0099 46.911 18.2245 46.911Z" fill="#111111" fill-opacity="0.52"/>
<path d="M6.85205 39.389H8.01584V40.4615H8.07331C8.27446 40.0992 8.59535 39.7941 9.03596 39.5463C9.47657 39.2889 9.94592 39.1602 10.444 39.1602C11.3252 39.1602 11.9957 39.4176 12.4555 39.9324C12.9248 40.4377 13.1595 41.1289 13.1595 42.006V46.6822H11.9383V42.1919C11.9383 41.515 11.7754 41.024 11.4497 40.7189C11.1241 40.4138 10.6787 40.2613 10.1135 40.2613C9.72082 40.2613 9.36642 40.3709 9.05033 40.5902C8.74381 40.8095 8.50435 41.1003 8.33194 41.4625C8.15952 41.8153 8.07331 42.1871 8.07331 42.578V46.6822H6.85205V39.389Z" fill="#111111" fill-opacity="0.52"/>
<path d="M3.58838 36.443H4.79527V46.6822H3.58838V36.443Z" fill="#111111" fill-opacity="0.52"/>
<path d="M112.642 22.3214C110.847 22.3214 109.194 21.8925 107.681 21.0347C106.169 20.1768 104.964 19.0039 104.067 17.5158C103.187 16.0102 102.748 14.3383 102.748 12.5C102.748 10.6618 103.187 8.99862 104.067 7.51052C104.964 6.00492 106.169 4.8232 107.681 3.96535C109.194 3.10751 110.847 2.67859 112.642 2.67859C114.066 2.67859 115.394 2.93244 116.626 3.44014C117.857 3.94785 118.886 4.65688 119.713 5.56724L117.655 7.61556C117.039 6.93279 116.3 6.40758 115.438 6.03993C114.594 5.67229 113.653 5.48846 112.615 5.48846C111.402 5.48846 110.267 5.77733 109.212 6.35506C108.156 6.93279 107.312 7.75562 106.679 8.82355C106.046 9.89147 105.729 11.117 105.729 12.5C105.729 13.8831 106.046 15.1086 106.679 16.1765C107.312 17.2444 108.156 18.0672 109.212 18.645C110.267 19.2227 111.41 19.5116 112.642 19.5116C113.767 19.5116 114.708 19.3453 115.465 19.0126C116.221 18.68 116.898 18.2336 117.496 17.6733C117.883 17.2882 118.209 16.8067 118.472 16.229C118.754 15.6513 118.939 15.021 119.027 14.3383H112.615V11.7122H121.823C121.911 12.2024 121.955 12.7101 121.955 13.2353C121.955 14.4258 121.77 15.5725 121.401 16.6754C121.032 17.7609 120.442 18.7062 119.633 19.5116C117.857 21.3848 115.526 22.3214 112.642 22.3214Z" fill="#111111"/>
<path d="M84.6304 3.09875H90.6723C92.6247 3.09875 94.3309 3.49266 95.7908 4.28048C97.2508 5.06829 98.3677 6.17999 99.1416 7.61556C99.9331 9.03363 100.329 10.6618 100.329 12.5C100.329 14.3383 99.9331 15.9752 99.1416 17.4107C98.3677 18.8288 97.2508 19.9317 95.7908 20.7196C94.3309 21.5074 92.6247 21.9013 90.6723 21.9013H84.6304V3.09875ZM90.6196 19.0914C92.7303 19.0914 94.3749 18.5137 95.5534 17.3582C96.7495 16.1852 97.3475 14.5658 97.3475 12.5C97.3475 10.4517 96.7495 8.84105 95.5534 7.66808C94.3749 6.49511 92.7303 5.90863 90.6196 5.90863H87.5854V19.0914H90.6196Z" fill="#111111"/>
<path d="M71.9058 22.3214C70.1116 22.3214 68.4582 21.8925 66.9455 21.0347C65.4329 20.1768 64.228 19.0039 63.3309 17.5158C62.4515 16.0102 62.0117 14.3383 62.0117 12.5C62.0117 10.6618 62.4515 8.99862 63.3309 7.51052C64.228 6.00492 65.4329 4.8232 66.9455 3.96535C68.4582 3.10751 70.1116 2.67859 71.9058 2.67859C73.3305 2.67859 74.6585 2.93244 75.8897 3.44014C77.121 3.94785 78.15 4.65688 78.9767 5.56724L76.9187 7.61556C76.3031 6.93279 75.5643 6.40758 74.7025 6.03993C73.8582 5.67229 72.9171 5.48846 71.8794 5.48846C70.6657 5.48846 69.5312 5.77733 68.4758 6.35506C67.4205 6.93279 66.5762 7.75562 65.9429 8.82355C65.3097 9.89147 64.9931 11.117 64.9931 12.5C64.9931 13.8831 65.3097 15.1086 65.9429 16.1765C66.5762 17.2444 67.4205 18.0672 68.4758 18.645C69.5312 19.2227 70.6745 19.5116 71.9058 19.5116C73.0315 19.5116 73.9725 19.3453 74.7288 19.0126C75.4852 18.68 76.1624 18.2336 76.7604 17.6733C77.1474 17.2882 77.4728 16.8067 77.7366 16.229C78.0181 15.6513 78.2028 15.021 78.2907 14.3383H71.8794V11.7122H81.0874C81.1754 12.2024 81.2193 12.7101 81.2193 13.2353C81.2193 14.4258 81.0346 15.5725 80.6653 16.6754C80.2959 17.7609 79.7066 18.7062 78.8975 19.5116C77.121 21.3848 74.7904 22.3214 71.9058 22.3214Z" fill="#111111"/>
<defs>
<clipPath id="clip0_189_489">
<rect width="52.0697" height="25" fill="white"/>
</clipPath>
</defs>
</svg>
